<svg width="40" height="40" viewBox="0 0 40 40" fill="none" xmlns="http://www.w3.org/2000/svg">
<path d="M34.9413 6.44189V37.0759C30.6394 33.2742 32.0152 34.5327 27.018 29.887L27.3437 33.046H8.55912C6.62959 33.046 5.05865 31.4752 5.05865 29.5283V6.44189C5.05865 4.49525 6.62951 2.92432 8.55912 2.92432H31.4406C33.3703 2.92432 34.9413 4.49525 34.9413 6.44189Z" fill="#8A9CFE"/>
<path d="M27.6157 12.6745C25.1568 10.8303 22.8174 10.8815 22.8174 10.8815L22.5783 11.1548C25.4812 12.0427 26.8303 13.3234 26.8303 13.3234C22.774 11.1002 18.0092 11.0999 14.0746 12.8282C13.4427 13.1184 13.0671 13.3234 13.0671 13.3234C13.0671 13.3234 14.4844 11.9744 17.5581 11.0865L17.3874 10.8815C17.3874 10.8815 15.0479 10.8303 12.589 12.6745C12.589 12.6745 10.1301 17.1313 10.1301 22.6296C10.1301 22.6296 11.5646 25.1056 15.3382 25.2252C15.3382 25.2252 15.97 24.4569 16.4823 23.8078C14.3136 23.1589 13.4941 21.7931 13.4941 21.7931C13.7453 21.9687 14.1595 22.1968 14.1942 22.2198C17.0764 23.8341 21.1704 24.3628 24.8495 22.8175C25.447 22.5956 26.1131 22.271 26.8132 21.81C26.8132 21.81 25.9593 23.2103 23.7224 23.842C24.2348 24.4909 24.8495 25.2251 24.8495 25.2251C28.6233 25.1056 30.0746 22.6295 30.0746 22.6295C30.0746 17.1313 27.6157 12.6745 27.6157 12.6745ZM16.9092 21.0416C15.9529 21.0416 15.1674 20.1879 15.1674 19.1462C15.1674 18.1045 15.9358 17.2508 16.9092 17.2508C17.8825 17.2508 18.668 18.1045 18.6509 19.1462C18.6509 20.1879 17.8825 21.0416 16.9092 21.0416ZM23.1418 21.0416C22.1857 21.0416 21.4001 20.1879 21.4001 19.1462C21.4001 18.1045 22.1686 17.2508 23.1418 17.2508C24.1152 17.2508 24.8836 18.1045 24.8836 19.1462C24.8836 20.1879 24.1152 21.0416 23.1418 21.0416Z" fill="#FDFDFD"/>
</svg>
