<svg width="40" height="40" viewBox="0 0 40 40" fill="none" xmlns="http://www.w3.org/2000/svg">
<path d="M37.5 13.5L33.3334 15.7917L29.1667 19.75V33.3333H35C36.3809 33.3333 37.5 32.2142 37.5 30.8333V13.5Z" fill="#4CAF50"/>
<path d="M2.5 13.5L5.51167 14.925L10.8333 19.75V33.3333H5C3.61917 33.3333 2.5 32.2142 2.5 30.8333V13.5Z" fill="#1E88E5"/>
<path d="M29.1667 9.33325L20 16.2083L10.8333 9.33325L10 14.1666L10.8333 19.7499L20 26.6249L29.1667 19.7499L30 14.1666L29.1667 9.33325Z" fill="#E53935"/>
<path d="M2.5 10.2484V13.5001L10.8333 19.7501V9.33341L8.23 7.38258C7.61 6.91758 6.85667 6.66675 6.08167 6.66675C4.10333 6.66675 2.5 8.27008 2.5 10.2484Z" fill="#C62828"/>
<path d="M37.5 10.2484V13.5001L29.1667 19.7501V9.33341L31.77 7.38258C32.39 6.91758 33.1434 6.66675 33.9184 6.66675C35.8967 6.66675 37.5 8.27008 37.5 10.2484Z" fill="#FBC02D"/>
</svg>
