<svg width="40" height="40" viewBox="0 0 40 40" fill="none" xmlns="http://www.w3.org/2000/svg">
<path d="M12.5792 36.2511C27.6736 36.2511 35.9296 23.7455 35.9296 12.9007C35.9296 12.5455 35.9296 12.1919 35.9056 11.8399C37.5117 10.6781 38.8982 9.23973 40 7.59191C38.5023 8.25559 36.9133 8.69074 35.2864 8.88309C36.9992 7.85777 38.282 6.24387 38.8944 4.34387C37.2835 5.29973 35.5209 5.97348 33.6832 6.3359C32.1315 4.68582 29.9643 3.74902 27.6994 3.74902C23.193 3.74902 19.4849 7.45715 19.4849 11.9634C19.4849 12.5886 19.5563 13.2118 19.6976 13.8207C13.1024 13.4901 6.94914 10.3706 2.78398 5.24629C0.618047 8.97488 1.73875 13.8069 5.32477 16.2014C4.01891 16.1628 2.74109 15.8104 1.6 15.1743V15.2782C1.60109 19.17 4.3693 22.5525 8.18398 23.3231C6.97586 23.6525 5.70797 23.7007 4.47844 23.4639C5.55086 26.7986 8.64336 29.0973 12.1456 29.1631C9.24016 31.4464 5.64898 32.6868 1.95359 32.6831C1.30063 32.6818 0.648281 32.6423 0 32.5646C3.75266 34.9728 8.12031 36.2506 12.5792 36.2446" fill="#1DA1F2"/>
</svg>
