<?xml version="1.0" standalone="no"?>
<!DOCTYPE svg PUBLIC "-//W3C//DTD SVG 20010904//EN"
 "http://www.w3.org/TR/2001/REC-SVG-20010904/DTD/svg10.dtd">
<svg version="1.0" xmlns="http://www.w3.org/2000/svg"
 width="220.000000pt" height="208.000000pt" viewBox="0 0 220.000000 208.000000"
 preserveAspectRatio="xMidYMid meet">

<g transform="translate(0.000000,208.000000) scale(0.100000,-0.100000)"
fill="#FFFFFF" stroke="none">
<path d="M810 2069 c-157 -15 -174 -20 -180 -53 -4 -22 -13 -32 -40 -41 -34
-11 -35 -13 -45 -87 -6 -41 -17 -83 -25 -93 -31 -38 -97 -57 -221 -62 l-118
-6 14 39 c8 21 14 58 15 81 0 34 5 46 25 59 23 15 35 44 18 44 -36 -2 -138
-40 -138 -51 0 -9 9 -13 27 -11 14 2 29 -1 32 -7 4 -6 0 -40 -9 -76 -8 -36
-14 -69 -12 -73 1 -4 -17 -26 -40 -49 -23 -23 -59 -75 -79 -115 -30 -60 -35
-79 -31 -116 6 -55 30 -88 90 -127 69 -45 70 -59 3 -52 -39 4 -58 2 -66 -8
-16 -19 -28 -153 -20 -216 17 -120 58 -141 192 -99 34 11 64 20 66 20 2 0 -18
-26 -43 -57 -60 -73 -80 -114 -95 -191 -28 -139 7 -275 87 -341 77 -64 224
-113 379 -127 68 -6 72 -5 79 16 6 19 12 21 42 15 61 -11 83 -23 83 -45 0 -24
51 -50 100 -50 22 0 33 -6 41 -24 6 -13 19 -26 29 -29 13 -3 16 -11 12 -32
l-5 -28 -26 32 c-38 45 -51 40 -51 -20 0 -43 3 -50 18 -47 11 2 16 11 14 23
-3 16 3 14 31 -13 l35 -34 6 45 c4 24 4 51 0 60 -5 14 1 15 42 12 28 -2 62 2
82 11 28 11 38 12 50 2 18 -16 142 -15 200 1 24 7 49 22 57 35 13 19 27 24 81
29 49 3 71 10 89 27 23 22 26 22 141 11 150 -15 159 -10 169 85 9 80 1 179
-15 199 -8 9 -30 15 -59 15 -89 0 -92 39 -4 62 53 13 58 24 68 133 12 145 0
132 122 140 179 12 183 22 165 453 -14 356 -21 372 -163 372 -36 0 -90 7 -120
16 -49 15 -163 16 -243 2 -14 -2 -21 7 -31 45 -18 70 -44 101 -90 107 -33 4
-38 8 -39 32 -2 46 -18 53 -124 53 -53 0 -122 -3 -152 -7 l-55 -8 -20 43 c-15
31 -32 48 -65 65 -49 24 -106 27 -280 11z m283 -131 c12 -17 21 -44 21 -70 l1
-43 -60 -3 c-33 -2 -63 -6 -67 -10 -9 -9 9 -224 26 -327 17 -95 11 -107 -48
-103 -39 3 -40 4 -52 51 -15 61 -34 229 -34 307 l0 60 -34 0 c-31 0 -34 3 -45
44 -8 31 -22 54 -47 74 -63 52 -48 58 146 52 l173 -5 20 -27z m-358 -44 c8 -4
22 -19 30 -34 17 -33 34 -201 38 -364 l2 -120 -40 -23 c-22 -12 -50 -23 -62
-23 -22 0 -22 1 -25 241 l-3 241 -29 23 c-24 19 -27 25 -17 44 9 16 21 21 51
21 21 0 46 -3 55 -6z m651 -12 c6 -4 9 -25 6 -48 l-4 -42 -56 -11 c-110 -21
-156 -75 -156 -181 0 -78 24 -114 102 -151 55 -27 62 -33 62 -60 0 -34 -21
-39 -41 -8 -18 26 -82 39 -160 32 l-59 -6 -26 58 c-24 51 -26 66 -22 143 3 55
11 99 21 119 38 73 125 136 210 153 55 10 109 12 123 2z m110 -93 c25 -20 190
-518 181 -543 -8 -20 -90 -22 -106 -2 -6 7 -16 39 -22 71 -19 102 -21 105 -82
105 -48 0 -55 -3 -68 -26 l-14 -26 -10 43 c-8 31 -17 45 -30 48 -11 2 -30 7
-42 12 l-21 8 19 88 c10 48 26 111 34 140 15 50 17 52 43 47 32 -7 58 16 48
42 -5 13 -1 14 27 9 17 -4 37 -11 43 -16z m-853 -85 c4 -43 6 -146 4 -229 -3
-132 -6 -156 -26 -198 -32 -65 -72 -97 -123 -97 -37 0 -40 2 -34 23 33 114 14
162 -79 208 -61 30 -65 34 -65 66 0 29 4 34 30 40 34 6 39 18 42 108 2 46 7
60 18 60 12 0 16 -23 21 -126 6 -140 26 -201 68 -207 50 -8 53 7 50 215 -3
120 0 196 6 202 10 10 52 20 70 16 6 -1 14 -37 18 -81z m-273 -89 l0 -74 -42
-12 c-56 -14 -68 -25 -68 -60 0 -31 23 -59 48 -59 31 0 120 -48 137 -74 14
-22 15 -33 5 -82 -23 -111 -141 -201 -277 -212 l-63 -5 0 72 c0 49 4 73 13 75
122 33 157 48 163 73 12 45 -14 75 -86 101 -92 33 -103 45 -97 108 13 126 112
220 235 223 l32 1 0 -75z m1486 14 c9 -7 14 -25 12 -43 -2 -26 -11 -35 -47
-52 -101 -49 -105 -90 -15 -185 71 -75 94 -118 94 -174 0 -63 -32 -101 -107
-131 -50 -20 -150 -15 -164 7 -5 8 -8 32 -7 54 3 38 5 40 41 46 20 3 49 16 62
29 35 33 33 72 -8 113 -28 27 -39 54 -65 147 -18 63 -32 123 -32 132 0 52 188
97 236 57z m190 -25 c17 -3 23 -14 29 -50 8 -57 -3 -72 -58 -76 l-42 -3 -3
-72 -3 -72 43 -3 c35 -2 45 -8 56 -30 18 -38 1 -68 -37 -68 -35 0 -41 -12 -34
-73 5 -45 7 -47 39 -47 40 0 47 -10 54 -77 6 -50 5 -51 -23 -57 -16 -3 -62 -6
-102 -6 -58 0 -78 4 -99 21 -33 26 -33 34 5 49 45 19 62 52 63 123 1 50 -5 73
-28 117 -32 62 -63 100 -83 100 -9 0 -13 16 -13 58 l0 58 43 14 c38 13 42 19
45 50 5 60 6 61 69 54 32 -3 68 -7 79 -10z m-781 -222 c29 -21 96 -115 91
-127 -9 -25 -36 -17 -54 16 -38 70 -52 80 -119 82 -74 2 -97 -14 -117 -82 -17
-60 -46 -69 -46 -16 0 49 26 102 59 120 27 15 168 21 186 7z m-9 -70 c6 -4 16
-17 22 -28 11 -21 10 -22 -79 -29 -99 -8 -118 -1 -100 33 9 16 23 22 64 25 28
2 59 4 67 5 8 1 20 -2 26 -6z m162 -9 c6 -20 -55 -16 -62 3 -5 12 1 15 26 12
17 -2 33 -9 36 -15z m-412 -19 c-3 -9 -6 -23 -6 -32 0 -14 -12 -17 -78 -17
-123 0 -152 42 -39 56 101 12 130 11 123 -7z m488 -37 c48 -38 31 -52 -81 -66
-54 -7 -189 -15 -301 -18 -202 -6 -203 -6 -227 17 -14 13 -25 27 -25 32 0 15
129 9 154 -7 26 -18 52 -11 67 16 9 17 22 19 114 19 61 0 115 -5 131 -12 25
-12 29 -10 48 15 26 35 78 37 120 4z m-684 -29 c0 -5 -14 -30 -32 -55 -35 -52
-68 -148 -68 -200 0 -46 -24 -39 -28 8 -4 43 36 172 73 234 22 38 29 44 41 34
8 -6 14 -16 14 -21z m27 -146 c-32 -67 -38 -92 -44 -175 l-6 -96 -24 17 c-35
22 -40 43 -32 127 7 75 37 156 80 216 l22 31 20 -21 21 -20 -37 -79z m697 76
c13 -50 6 -249 -10 -283 -65 -137 -208 -189 -458 -167 -96 8 -128 15 -174 39
l-57 28 0 111 c0 107 2 115 34 182 l34 69 201 8 c158 5 366 22 417 34 4 0 9
-9 13 -21z m-972 -210 c17 -14 30 -88 19 -106 -4 -7 -30 -12 -59 -13 -47 -2
-56 -6 -97 -46 -56 -56 -74 -111 -51 -160 12 -26 33 -41 104 -75 l90 -43 4
-60 c3 -33 3 -66 0 -73 -15 -42 -234 47 -296 120 -42 48 -50 84 -44 177 6 84
42 155 110 216 71 64 179 95 220 63z m136 -100 c8 -8 12 -59 12 -164 0 -181
-1 -180 96 -171 l65 6 -3 -57 -3 -57 -48 -8 c-27 -4 -86 -6 -130 -5 l-82 3 3
72 c3 64 2 72 -17 83 -19 10 -21 19 -21 124 0 111 0 113 25 124 17 8 25 20 25
37 0 22 4 25 33 25 18 0 38 -5 45 -12z m1120 -70 c-3 -43 -3 -43 -50 -50 -81
-11 -148 -68 -148 -125 0 -40 22 -94 45 -109 13 -9 53 -17 91 -19 37 -2 72 -9
77 -14 6 -6 11 -32 11 -58 1 -47 1 -47 -39 -56 -80 -17 -212 17 -252 65 -15
18 -20 287 -5 313 5 11 21 30 34 41 45 42 80 53 161 54 l78 0 -3 -42z m-319
-110 c-5 -61 -5 -158 0 -225 5 -65 6 -122 2 -126 -5 -5 -30 -7 -57 -5 -45 3
-48 5 -57 38 -9 34 -3 234 9 318 6 36 12 45 38 56 17 7 40 23 50 35 11 11 20
20 21 19 2 -2 -1 -51 -6 -110z m-604 32 c22 -11 52 -20 67 -20 40 0 46 -22 54
-215 8 -190 10 -185 -71 -185 -59 0 -71 6 -80 42 -5 21 -2 29 14 38 19 10 21
20 21 100 0 82 -2 90 -19 90 -10 0 -22 7 -25 16 -6 15 -9 154 -3 154 1 0 20
-9 42 -20z m453 -22 c6 -8 7 -31 2 -63 -12 -72 -12 -343 0 -350 6 -3 10 -13
10 -21 0 -12 -13 -14 -67 -12 l-66 3 -24 90 c-24 89 -57 159 -88 185 -16 13
-16 3 -10 -132 l8 -147 -25 -6 c-35 -9 -81 -2 -85 12 -2 6 10 14 28 18 l32 7
-6 200 c-8 240 -5 243 90 99 89 -136 103 -140 103 -28 0 79 12 136 32 149 19
12 54 10 66 -4z"/>
<path d="M1435 1658 c-2 -7 -6 -42 -7 -78 l-3 -65 37 -9 c21 -5 40 -7 42 -5 6
5 -28 141 -38 158 -9 15 -26 14 -31 -1z"/>
<path d="M1137 1083 c-4 -3 -7 -30 -7 -60 0 -35 -4 -54 -12 -55 -7 -1 -33 -2
-56 -3 -25 -1 -48 -8 -53 -16 -9 -13 -3 -104 8 -121 2 -5 26 -8 54 -8 l49 0 0
-45 0 -46 83 3 82 3 5 50 5 50 50 5 50 5 0 65 0 65 -52 -3 -53 -3 0 45 c0 73
-3 76 -79 76 -37 0 -71 -3 -74 -7z"/>
<path d="M433 1985 l-31 -13 5 -84 c6 -100 8 -108 29 -108 24 0 84 48 84 66 0
12 -6 11 -30 -6 -34 -24 -50 -19 -50 15 0 17 8 26 31 34 17 6 28 15 24 20 -4
7 -15 7 -31 1 -19 -7 -26 -6 -30 4 -9 24 14 54 46 61 16 4 30 11 30 16 0 13
-40 10 -77 -6z"/>
<path d="M347 1973 c-4 -3 -7 -30 -7 -58 0 -28 -3 -55 -7 -58 -14 -15 -33 18
-33 59 0 34 -3 42 -15 38 -12 -5 -15 -24 -15 -84 0 -43 -4 -90 -10 -104 -8
-22 -7 -26 10 -26 19 0 24 11 32 65 2 11 12 21 22 23 17 4 18 -1 13 -33 -5
-30 -3 -36 11 -33 15 3 17 19 20 111 2 97 -2 119 -21 100z"/>
<path d="M744 199 c-3 -6 6 -24 22 -40 15 -16 24 -32 20 -36 -4 -5 -13 0 -20
10 -16 21 -36 22 -36 2 0 -20 44 -47 72 -43 33 5 34 35 1 70 l-28 31 29 -7
c26 -6 28 -5 17 8 -15 18 -66 21 -77 5z"/>
<path d="M1614 190 c-12 -5 -25 -13 -28 -18 -11 -18 6 -42 30 -42 19 0 24 -5
24 -26 0 -16 5 -24 13 -22 16 6 21 86 6 104 -13 16 -16 16 -45 4z"/>
<path d="M1502 153 c-12 -23 -6 -41 26 -75 32 -34 46 -35 60 -3 9 20 8 27 -6
37 -9 7 -22 22 -28 33 -15 27 -40 31 -52 8z m38 -17 c0 -3 -4 -8 -10 -11 -5
-3 -10 -1 -10 4 0 6 5 11 10 11 6 0 10 -2 10 -4z"/>
<path d="M852 135 c-14 -31 -16 -75 -3 -75 11 0 42 86 33 94 -11 11 -19 6 -30
-19z"/>
<path d="M1411 128 c-11 -30 -3 -48 20 -48 12 0 19 -7 19 -19 0 -24 11 -32 29
-22 19 12 3 78 -22 96 -29 20 -36 19 -46 -7z"/>
<path d="M1350 79 c0 -66 24 -62 28 4 2 37 0 47 -12 47 -12 0 -16 -12 -16 -51z"/>
<path d="M1168 109 c-24 -14 -25 -97 -2 -106 21 -8 66 8 72 25 3 9 -4 11 -25
7 -25 -6 -26 -5 -10 8 21 17 22 31 2 24 -26 -11 -27 13 -1 25 14 6 26 15 26
20 0 11 -41 10 -62 -3z"/>
<path d="M1052 98 c-15 -15 -15 -61 0 -76 18 -18 68 -15 68 3 0 9 -9 15 -25
15 -31 0 -35 35 -5 43 11 3 20 10 20 16 0 15 -43 14 -58 -1z"/>
</g>
</svg>
