<svg width="941" height="1080" viewBox="0 0 941 1080" fill="none" xmlns="http://www.w3.org/2000/svg">
<path d="M357.804 64.2289C296.288 99.5072 215.048 146.227 177.251 167.897C139.455 189.566 96.88 214.01 82.7173 222.071C68.5546 230.219 55.6083 237.413 53.9574 238.107C52.3065 238.8 39.4471 245.908 25.4582 253.969L0 268.617L0.521327 490.688C0.781991 612.732 1.21643 716.4 1.39021 720.907C1.56398 725.415 1.73776 747.518 1.73776 769.881L1.82465 810.706L13.3807 817.294C113.041 874.329 191.588 919.402 201.667 925.296C227.299 940.378 262.836 960.834 324.613 996.112C359.542 1016.05 406.027 1042.75 428.01 1055.31C449.992 1067.88 468.76 1078.54 469.716 1079.06C471.454 1079.84 494.045 1067.1 620.901 993.945C655.135 974.183 742.196 924.169 833.342 871.902C873.745 848.758 914.408 825.008 923.705 819.201L940.648 808.713V755.492V702.358L888.95 672.801C860.451 656.592 832.299 640.383 826.391 636.742C813.358 628.768 803.279 622.96 802.584 622.96C802.323 622.96 802.062 647.144 802.062 676.701V730.355L797.979 732.696C795.633 733.996 782.078 741.97 767.742 750.378C738.2 767.8 713.523 782.016 657.394 814.087C635.933 826.309 616.904 837.23 615.253 838.27C608.042 842.951 506.904 900.592 496.651 905.966C490.482 909.174 481.446 914.028 476.754 916.628L468.065 921.309L456.335 915.414C444.084 909.174 314.187 834.196 302.022 826.222C298.199 823.795 281.43 813.827 264.661 804.119C229.992 784.009 216.872 776.295 180.814 754.712C166.738 746.304 151.619 737.376 147.275 734.949L139.281 730.442L138.76 672.974C136.935 478.553 137.457 351.136 140.15 348.535C140.758 347.929 150.316 342.208 161.264 335.794C172.299 329.379 189.85 318.978 200.364 312.65C210.877 306.323 221.651 299.909 224.258 298.348C226.864 296.788 242.157 287.773 258.144 278.239C274.131 268.704 298.026 254.662 311.146 247.034C324.266 239.407 351.896 223.458 372.402 211.496C446.343 168.59 466.414 157.495 470.15 157.495C473.8 157.495 491.351 167.29 599.179 229.699C706.225 291.587 732.552 306.93 759.922 323.485C774.779 332.413 789.377 340.994 792.505 342.641C803.105 348.275 801.802 340.994 802.67 400.803L803.366 453.07L831.604 436.254C847.157 427.066 877.655 409.037 899.377 396.209L938.911 372.892V320.451V268.097L929.353 262.81C918.405 256.742 791.636 184.366 653.918 105.488C630.024 91.7928 588.752 68.2161 562.252 53.0474C535.751 37.8785 504.037 19.7627 491.786 12.7417L469.542 0L357.804 64.2289Z" fill="white"/>
<path d="M370.494 355.99C363.37 357.464 355.81 363.965 353.03 371.159C351.379 375.406 351.379 380.26 350.771 536.282C350.336 656.245 350.423 698.285 351.205 701.838C352.248 707.126 355.984 714.234 359.112 717.181C360.242 718.221 363.37 720.128 366.15 721.341C370.581 723.422 372.058 723.682 377.88 723.335L384.57 722.988L444.523 688.49C477.54 669.421 512.904 649.051 523.156 643.07C533.409 637.176 570.423 615.94 605.266 595.917C640.194 575.808 669.389 558.819 670.258 558.125C671.04 557.432 673.125 554.051 674.776 550.757C678.946 542.523 679.033 535.502 675.123 527.788C670.605 518.773 667.043 516.346 619.515 489.476C595.447 475.954 559.736 455.671 540.1 444.489C520.55 433.394 477.019 408.691 443.48 389.708C385.526 356.857 382.311 355.123 378.314 355.21C376.055 355.297 372.493 355.643 370.494 355.99Z" fill="white"/>
</svg>
