<svg width="1183" height="473" viewBox="0 0 1183 473" fill="none" xmlns="http://www.w3.org/2000/svg">
<g clip-path="url(#clip0_697_43)">
<path fill-rule="evenodd" clip-rule="evenodd" d="M589.79 378.234C625.008 325.357 693.59 214.97 696.891 152.566C701.344 68.4224 643.208 1.57223 569.299 1.01309C495.386 0.453951 431.291 67.9841 434.315 152.566C436.572 215.541 510.295 326.393 547.815 378.92C558.332 393.644 579.759 393.292 589.79 378.234ZM640.664 143.34C640.349 184.964 607.15 218.458 566.511 218.15C525.873 217.843 493.184 183.851 493.499 142.227C493.814 100.603 527.013 67.1097 567.652 67.4171C608.29 67.7245 640.978 101.717 640.664 143.34Z" fill="white"/>
<path d="M473 366.575C305.899 378.454 300.485 417.044 383.313 440.376C491.974 470.983 865.232 457.229 808.381 396.452C783.808 370.177 700.452 363.487 657.859 361.507" stroke="white" stroke-width="33.7857" stroke-linecap="round"/>
<path d="M10.6255 233.01C4.83092 225.879 1.93359 219.527 1.93359 213.955C1.93359 208.16 6.72531 200.583 16.3088 191.222C21.8805 185.873 27.7866 183.199 34.0271 183.199C40.2673 183.199 48.9594 188.77 60.1029 199.914C63.223 203.703 67.6804 207.38 73.4749 210.946C79.2699 214.289 84.6185 215.961 89.5218 215.961C110.249 215.961 120.612 207.492 120.612 190.554C120.612 185.427 117.715 181.193 111.92 177.85C106.348 174.284 99.3281 171.721 90.859 170.161C82.39 168.601 73.2523 166.149 63.446 162.806C53.6397 159.24 44.502 155.117 36.0329 150.437C27.5637 145.756 20.4319 138.402 14.6372 128.373C9.06545 118.12 6.27958 105.863 6.27958 91.5989C6.27958 71.9863 13.5229 54.9367 28.0095 40.4501C42.7188 25.7406 62.6659 18.3858 87.8501 18.3858C101.222 18.3858 113.369 20.1688 124.29 23.7347C135.433 27.0778 143.122 30.5323 147.357 34.0984L155.714 40.4501C162.623 46.9133 166.078 52.3737 166.078 56.8311C166.078 61.2884 163.403 67.4175 158.054 75.2179C150.477 86.3615 142.677 91.9331 134.653 91.9331C129.973 91.9331 124.178 89.7046 117.269 85.2469C116.601 84.8013 115.263 83.687 113.258 81.9041C111.474 80.1209 109.803 78.6725 108.243 77.5579C103.562 74.6608 97.5452 73.2121 90.1904 73.2121C83.0586 73.2121 77.041 74.9949 72.1377 78.561C67.4577 81.9041 65.1174 86.6956 65.1174 92.9362C65.1174 98.9538 67.9033 103.857 73.4749 107.645C79.2699 111.434 86.4017 113.998 94.8708 115.335C103.34 116.672 112.589 118.789 122.618 121.686C132.647 124.361 141.896 127.704 150.365 131.715C158.835 135.727 165.855 142.748 171.427 152.777C177.221 162.583 180.119 174.73 180.119 189.216C180.119 203.703 177.221 216.518 171.427 227.661C165.632 238.582 158.054 247.051 148.694 253.069C130.641 264.881 111.363 270.787 90.859 270.787C80.3841 270.787 70.4663 269.561 61.1057 267.11C51.7453 264.435 44.1675 261.204 38.3729 257.415C26.5608 250.283 18.3146 243.374 13.6343 236.688L10.6255 233.01Z" fill="white"/>
<path d="M354.97 203.257L360.987 198.911C368.562 194.453 373.914 192.225 377.032 192.225C383.941 192.225 391.408 198.465 399.432 210.946C404.334 218.746 406.787 224.987 406.787 229.667C406.787 234.347 405.226 238.247 402.105 241.368C399.209 244.488 395.753 247.274 391.742 249.725C387.732 252.177 383.83 254.517 380.042 256.745C376.475 258.974 369.008 261.872 357.643 265.438C346.277 269.004 335.244 270.786 324.547 270.786C314.072 270.786 303.374 269.449 292.453 266.775C281.755 263.878 270.612 259.197 259.023 252.734C247.656 246.048 237.404 238.024 228.267 228.664C219.129 219.08 211.551 206.934 205.534 192.225C199.739 177.292 196.842 161.134 196.842 143.75C196.842 126.366 199.739 110.654 205.534 96.613C211.328 82.3493 218.683 70.6487 227.598 61.511C236.736 52.1503 247.099 44.3499 258.688 38.1093C280.53 26.0745 302.482 20.057 324.547 20.057C335.022 20.057 345.608 21.7285 356.305 25.0715C367.228 28.1917 375.471 31.4234 381.046 34.7666L389.067 39.4466C393.08 41.8984 396.199 43.9042 398.429 45.4641C404.223 50.1445 407.122 55.4934 407.122 61.511C407.122 67.3056 404.78 73.4343 400.101 79.8979C391.408 91.9327 383.607 97.9502 376.698 97.9502C372.687 97.9502 367.005 95.4987 359.649 90.5954C350.287 83.018 337.807 79.2292 322.206 79.2292C307.72 79.2292 293.456 84.2437 279.415 94.273C272.729 99.176 267.157 106.085 262.7 115C258.243 123.915 256.014 134.055 256.014 145.422C256.014 156.565 258.243 166.594 262.7 175.509C267.157 184.424 272.841 191.444 279.75 196.57C293.345 206.377 307.497 211.28 322.206 211.28C329.116 211.28 335.579 210.388 341.598 208.606C347.838 206.823 352.294 205.039 354.97 203.257Z" fill="white"/>
<path d="M848.728 19.388C881.713 19.388 910.354 31.3116 934.646 55.1586C958.938 79.0059 971.087 108.648 971.087 144.084C971.087 179.298 959.495 209.385 936.318 234.347C913.138 259.085 884.612 271.455 850.735 271.455C816.858 271.455 787.999 259.197 764.149 234.681C740.526 210.165 728.715 180.969 728.715 147.093C728.715 128.595 732.056 111.322 738.742 95.2754C745.429 79.0059 754.345 65.4109 765.487 54.49C776.63 43.5694 789.445 34.9889 803.932 28.7486C818.419 22.5082 833.353 19.388 848.728 19.388ZM787.887 145.422C787.887 165.257 794.239 181.415 806.942 193.896C819.869 206.154 834.245 212.282 850.066 212.282C865.892 212.282 880.156 206.265 892.859 194.23C905.563 182.195 911.914 166.037 911.914 145.756C911.914 125.474 905.451 109.205 892.525 96.9471C879.821 84.689 865.557 78.5603 849.732 78.5603C833.91 78.5603 819.646 84.8005 806.942 97.2813C794.239 109.539 787.887 125.586 787.887 145.422Z" fill="white"/>
<path d="M1173.81 71.8744C1179.6 83.6865 1182.5 96.8359 1182.5 111.323C1182.5 125.809 1179.6 138.958 1173.81 150.77C1168.02 162.36 1160.55 171.609 1151.41 178.518C1132.92 192.782 1113.75 199.913 1093.91 199.913H1052.12V237.69C1052.12 242.816 1051.9 246.716 1051.45 249.391C1051.23 251.842 1050.23 254.74 1048.44 258.083C1045.33 264.1 1036.63 267.109 1022.37 267.109C1006.77 267.109 997.63 262.986 994.958 254.74C993.62 250.951 992.951 245.156 992.951 237.356V51.8161C992.951 46.6898 993.063 42.9011 993.286 40.4496C993.732 37.7751 994.847 34.7665 996.627 31.4233C999.749 25.4058 1008.44 22.3971 1022.7 22.3971H1094.24C1113.86 22.3971 1132.92 29.5289 1151.41 43.7927C1160.55 50.7015 1168.02 60.0622 1173.81 71.8744ZM1094.24 140.741C1100.93 140.741 1107.51 138.29 1113.97 133.387C1120.43 128.483 1123.66 121.129 1123.66 111.323C1123.66 101.516 1120.43 94.1615 1113.97 89.2581C1107.51 84.1322 1100.82 81.5692 1093.91 81.5692H1052.12V140.741H1094.24Z" fill="white"/>
</g>
<defs>
<clipPath id="clip0_697_43">
<rect width="1182.5" height="473" rx="135.143" fill="white"/>
</clipPath>
</defs>
</svg>
